<?xml version="1.0" encoding="UTF-8" standalone="no"?>
<svg
   xmlns:dc="http://purl.org/dc/elements/1.1/"
   xmlns:cc="http://creativecommons.org/ns#"
   xmlns:rdf="http://www.w3.org/1999/02/22-rdf-syntax-ns#"
   xmlns:svg="http://www.w3.org/2000/svg"
   xmlns="http://www.w3.org/2000/svg"
   width="79.375mm"
   height="79.375mm"
   viewBox="0 0 79.375 79.375"
   version="1.1"
   id="svg8">
  <defs
     id="defs2" />
  <metadata
     id="metadata5">
    <rdf:RDF>
      <cc:Work
         rdf:about="">
        <dc:format>image/svg+xml</dc:format>
        <dc:type
           rdf:resource="http://purl.org/dc/dcmitype/StillImage" />
        <dc:title></dc:title>
      </cc:Work>
    </rdf:RDF>
  </metadata>
  <g
     id="layer1"
     transform="translate(-123.89418,-152.2488)">
    <g
       id="g847"
       transform="translate(66.063819,-17.462496)">
      <path
         style="fill:#fefefe;stroke-width:0.264583"
         d="m 57.830357,209.3988 v -39.6875 h 39.6875 39.687503 v 39.6875 39.6875 h -39.687503 -39.6875 z m 11.509375,15.80883 v -16.86721 l 28.310417,-1.4e-4 28.310421,-1.4e-4 -0.0791,7.47464 -0.0792,7.47464 -2.51232,-2.64583 -2.51233,-2.64583 -1.53158,-1.89818 -1.53158,-1.89817 -0.77174,-0.64536 -0.77174,-0.64535 -1.11394,-0.56533 -1.11393,-0.56532 h -0.14284 -0.14283 l -0.009,5.4901 -0.009,5.49011 -0.54678,-0.66146 -0.54678,-0.66146 -2.01545,-2.11667 -2.01546,-2.11666 -2.25701,-2.38125 -2.25701,-2.38125 -0.4587,-0.34229 -0.4587,-0.34228 -0.84971,0.60687 -0.8497,0.60686 -1.1739,1.12051 -1.173891,1.1205 -0.891735,1.38412 -0.891736,1.38411 v 0.33966 0.33965 h -0.24266 -0.242657 l -0.28651,1.33594 -0.286507,1.33594 v 2.08345 2.08346 l 0.310026,1.3431 0.310026,1.34311 h 0.190457 0.190458 l 0.159623,0.63599 0.159626,0.63599 1.110152,1.41453 1.110152,1.41453 0.412556,0.30357 0.41255,0.30357 0.62674,0.54847 0.62674,0.54847 0.49075,0.15576 0.49076,0.15576 0.0731,3.88699 0.0731,3.88699 15.29305,0.0683 15.29306,0.0683 0.5158,-0.27604 0.5158,-0.27605 v -22.27929 -22.27929 l -4.95831,-4.96349 -4.95833,-4.96348 h -5.22813 -5.22813 v -2.44308 -2.44307 l -2.83976,-2.84859 -2.83976,-2.84859 H 97.65898 86.810873 l -2.848591,2.83976 -2.848592,2.83975 v 2.45191 2.45191 l -4.960937,0.006 -4.960938,0.006 -1.988609,1.91242 -1.988608,1.91242 -3.236912,3.02417 -3.236912,3.02418 v 22.29653 22.29653 l 0.46302,0.27349 0.463021,0.27348 3.836459,-0.0619 3.836458,-0.0619 z M 87.4157,184.66085 87.5,182.14672 H 97.650149 107.8003 l 0.0843,2.51413 0.0843,2.51414 H 97.650149 87.331399 Z m 10.36674,55.16503 v -2.38125 H 85.214732 72.647024 v 2.38125 2.38125 H 85.214732 97.78244 Z m -6.413177,-16.99948 0.06911,-10.78177 H 82.0427 72.647024 v 10.8513 10.85131 l 9.326562,-0.0695 9.326563,-0.0695 z"
         id="path907" />
      <path
         style="fill:#f6f8fd;stroke-width:0.264583"
         d="m 69.332029,225.2738 v -16.80104 l 0.07371,8.40052 0.07371,8.40052 -0.07371,8.40052 -0.07371,8.40052 z m 33.582641,12.96458 v -3.83646 l 0.0913,1.91823 0.0913,1.91823 -0.0913,1.91823 -0.0913,1.91823 z m -25.455939,-4.69582 4.414832,-0.0793 4.581001,0.0791 4.581001,0.0791 -8.995833,1.8e-4 -8.995833,1.7e-4 z m 48.486099,-17.52918 v -7.54062 l 0.0813,3.77031 0.0813,3.77031 -0.0813,3.77032 -0.0813,3.77031 z m -14.17322,4.82865 -0.36313,-0.46302 0.46302,0.36312 0.46302,0.36313 v 0.0999 0.0999 h -0.0999 -0.0999 z m -28.495396,-12.69994 14.201064,-0.0708 14.373932,0.0708 14.37394,0.0708 -28.575001,2e-5 -28.575,2e-5 z M 66.561607,191.57182 v -0.0999 l 0.463021,-0.36313 0.463021,-0.36313 -0.363126,0.46303 -0.363126,0.46302 h -0.0999 -0.0999 z m 4.101042,-3.86885 0.478889,-0.52917 h 0.132292 0.132291 l -0.478889,0.52917 -0.478889,0.52916 h -0.132292 -0.132292 z"
         id="path905" />
      <path
         style="fill:#f2f3f3;stroke-width:0.264583"
         d="m 63.585045,242.01068 1.918229,-0.0913 1.918229,0.0913 1.918229,0.0913 h -3.836458 -3.836459 z m 64.414465,5.3e-4 1.77436,-0.0923 1.92981,0.0915 1.9298,0.0915 -3.70416,7.9e-4 -3.70417,8e-4 1.77436,-0.0923 z m -48.918121,-4.50023 6.302073,-0.076 6.133343,0.0761 6.133344,0.0761 -12.435417,-9e-5 -12.435417,-1e-4 z m 42.228941,-18.78562 -0.64143,-0.7276 0.7276,0.64143 0.72761,0.64144 v 0.0862 0.0862 h -0.0862 -0.0862 z m -13.77206,-2.38125 -0.36312,-0.46302 0.46302,0.36313 0.46302,0.36312 v 0.0999 0.0999 h -0.0999 -0.0999 z m -41.770413,-24.01094 0.621408,-0.66145 h 0.132291 0.132292 l -0.621408,0.66145 -0.621407,0.66146 h -0.132292 -0.132292 z m 3.704167,-3.43958 0.621407,-0.66146 h 0.132292 0.132292 l -0.621408,0.66146 -0.621408,0.66146 h -0.132291 -0.132292 z m 55.264166,-1.38906 -0.36312,-0.46302 0.46302,0.36312 0.46302,0.36313 v 0.0999 0.0999 h -0.0999 -0.0999 z m -37.441701,-2.97656 v -2.51355 l 0.0991,1.25678 0.0991,1.25677 -0.0991,1.25677 -0.0991,1.25677 z m 20.637501,0 v -2.51355 l 0.0991,1.25678 0.0991,1.25677 -0.0991,1.25677 -0.0991,1.25677 z"
         id="path903" />
      <path
         style="fill:#ebebec;stroke-width:0.264583"
         d="m 126.35724,232.94672 0.13209,-9.12813 0.0699,8.92225 0.0699,8.92224 3.63451,0.0745 3.63451,0.0745 -3.83646,0.13135 -3.83646,0.13135 z m -63.180646,8.79989 1.774362,-0.0923 1.929805,0.0915 1.929804,0.0916 -3.704166,7.9e-4 -3.704167,7.9e-4 1.774362,-0.0923 z m 5.890962,-16.73739 v -17.06563 l 0.07361,8.53281 0.07361,8.53282 -0.07361,8.53281 -0.07361,8.53281 z m 28.539257,15.08125 v -1.98438 l 0.103785,0.99219 0.103785,0.99219 -0.103785,0.99218 -0.103785,0.99219 z M 91.28856,222.89255 v -10.71563 l 0.07742,5.35782 0.07742,5.35781 -0.07742,5.35781 -0.07742,5.35781 z m 34.73977,-4.29919 0.0678,-5.09352 0.0745,-2.77812 0.0745,-2.77813 0.0562,7.87136 0.0562,7.87135 -0.19844,2.6e-4 -0.19843,2.7e-4 0.0678,-5.09352 z m -1.41582,3.70388 -0.50403,-0.59532 0.59531,0.50403 0.59532,0.50403 v 0.0913 0.0913 h -0.0913 -0.0913 z m -14.41468,-3.04271 -0.64143,-0.72761 0.7276,0.64144 0.72761,0.64143 v 0.0862 0.0862 h -0.0862 -0.0862 z m -36.609189,-15.55269 -0.51359,-0.38846 0.249007,0.008 0.249007,0.008 0.513591,0.38846 0.51359,0.38846 -0.249007,-0.008 -0.249007,-0.008 z m 2.645834,0.0168 0.51359,-0.38846 h 0.264584 0.264583 l -0.513591,0.38846 -0.51359,0.38846 h -0.264583 -0.264584 z m 4.614632,0.12388 -0.396875,-0.25648 h 0.264583 0.264584 l 0.396875,0.25648 0.396875,0.25648 h -0.264584 -0.264583 z m 2.292508,1.1e-4 0.572716,-0.23092 0.279134,-0.47991 0.279134,-0.47991 0.008,0.28973 0.008,0.28972 -0.483854,0.43788 -0.483854,0.43788 -0.376042,-0.0168 -0.376042,-0.0168 0.572716,-0.23092 z m -2.909869,-0.70567 -0.176389,-0.17638 0.0041,-0.8158 0.0041,-0.8158 0.19576,-0.30769 0.195761,-0.30769 -0.0014,1.29906 -0.0014,1.29906 -0.02205,7.9e-4 -0.02205,7.9e-4 -0.176389,-0.17639 z m -7.253416,-1.01423 0.0053,-1.05834 0.115066,0.5984 0.115067,0.5984 -0.120406,0.45994 -0.120406,0.45993 z m 4.227994,0.13229 v -0.92604 l 0.121001,0.46302 0.120999,0.46302 -0.120999,0.46302 -0.121001,0.46302 z m 6.685687,-1.3223 -0.167756,-0.52855 -0.653558,-0.16404 -0.653558,-0.16403 -0.850162,0.16305 -0.850162,0.16305 0.396875,-0.26016 0.396875,-0.26017 0.859896,-0.004 0.859896,-0.004 0.529167,0.52917 0.529166,0.52916 v 0.26459 0.26458 h -0.114462 -0.114462 z m -9.830659,-0.85646 0.305463,-0.19439 h 0.79375 0.79375 l 0.305464,0.19439 0.305464,0.19438 h -1.404678 -1.404677 z m -13.320578,-2.94822 v -0.0999 l 0.46302,-0.36313 0.463021,-0.36313 -0.363126,0.46303 -0.363126,0.46302 h -0.09989 -0.09989 z m 69.717706,-3.86885 -3.96213,-3.96875 h 0.13229 0.13229 l 3.96214,3.96875 3.96213,3.96875 h -0.13229 -0.1323 z m -65.881248,0.26458 0.478889,-0.52917 h 0.132292 0.132292 l -0.47889,0.52917 -0.478889,0.52917 h -0.132292 -0.132291 z m 60.952708,-5.22552 -0.36312,-0.46302 0.46302,0.36312 0.46302,0.36313 v 0.0999 0.0999 h -0.0999 -0.0999 z m -51.77182,-1.0567 2.301721,-0.088 2.460779,0.0875 2.460779,0.0875 -4.7625,5e-4 -4.7625,5e-4 z m 18.948506,-10e-4 5.110644,-0.078 4.94352,0.0781 4.94353,0.0781 -10.054171,-1.4e-4 -10.054167,-1.4e-4 z m 24.191964,9e-4 2.57968,-0.0865 2.57969,0.0865 2.57969,0.0865 h -5.15938 -5.15937 z m -24.491483,-5.29245 5.075709,-0.0779 5.243044,0.0777 5.24304,0.0777 -10.318751,1.3e-4 -10.31875,1.4e-4 z"
         id="path901" />
      <path
         style="fill:#e4e5e6;stroke-width:0.264583"
         d="m 79.081389,242.00889 6.302073,-0.076 6.133343,0.0761 6.133344,0.0761 -12.435417,-1e-4 -12.435417,-9e-5 z m -13.957257,-0.26445 -3.686432,-0.082 -0.348463,-0.2892 -0.348463,-0.28919 v -16.50406 -16.50407 h 4.101041 4.101042 v 16.93334 16.93333 l -0.06615,-0.058 -0.06615,-0.058 z m 7.611846,-1.91856 v -1.98437 l 0.103786,0.99219 0.103786,0.99218 -0.103786,0.99219 -0.103786,0.99219 z m 53.886042,-7.01146 v -8.86354 l -0.19843,1.5e-4 -0.19844,1.5e-4 0.0737,-7.93765 0.0737,-7.93765 h 4.09345 4.09345 v 16.48354 16.48355 l -0.3175,0.3175 -0.3175,0.3175 h -3.65125 -3.65125 z m -53.847207,-10.05416 0.0045,-10.58334 9.194341,-0.005 9.194341,-0.005 -9.125197,0.0748 -9.125196,0.0748 -0.07365,10.51376 -0.07365,10.51376 0.0045,-10.58333 z m 50.903047,-1.38906 -0.36313,-0.46303 0.46302,0.36313 0.46302,0.36313 v 0.0999 0.0999 h -0.0999 -0.0999 z m -19.03628,-7.9375 -0.64143,-0.72761 0.7276,0.64143 0.72761,0.64144 v 0.0862 0.0862 h -0.0862 -0.0862 z m -30.246976,-9.37153 0.19131,-0.30955 -0.431805,0.1657 -0.431805,0.1657 -0.181646,-0.29391 -0.181645,-0.2939 0.37161,0.19279 0.371609,0.19279 -0.438842,-0.36184 -0.438842,-0.36183 -0.08014,-1.10995 -0.08014,-1.10995 0.27663,-0.27663 0.276631,-0.27663 1.357072,-0.21452 1.357071,-0.21453 -0.138147,0.22353 -0.138147,0.22353 h 0.544782 0.544781 l 0.02564,0.33073 0.02564,0.33072 -0.04944,1.05834 -0.04944,1.05833 -0.378633,0.2147 -0.378633,0.2147 0.151598,0.24529 0.151598,0.24529 -0.45402,-0.17422 -0.454021,-0.17423 0.191311,0.30955 0.191311,0.30955 H 75.16058 74.203309 Z m 7.14375,0 0.19131,-0.30955 -0.45402,0.17423 -0.454021,0.17422 0.147682,-0.23895 0.147682,-0.23896 -0.299839,-0.0999 -0.299839,-0.1 -0.187304,-1.23419 -0.187303,-1.2342 0.238606,0.14747 0.238607,0.14747 -0.08384,-0.48957 -0.08384,-0.48958 0.489572,0.0839 0.489573,0.0838 -0.147468,-0.23861 -0.147467,-0.23861 1.234193,0.18731 1.234192,0.1873 0.09995,0.29984 0.09995,0.29984 0.238955,-0.14768 0.238954,-0.14768 -0.174224,0.45402 -0.174224,0.45402 0.309546,-0.19131 0.309547,-0.19131 v 0.95727 0.95727 l -0.309547,-0.19131 -0.309546,-0.19131 0.165699,0.4318 0.1657,0.43181 -0.319174,0.20031 -0.319174,0.2003 -0.529167,-0.0714 -0.529166,-0.0714 0.396875,0.27237 0.396875,0.27237 -1.007803,0.004 -1.007802,0.004 0.19131,-0.30955 z m -18.691971,-8.75243 1.179567,-1.25677 h 0.0772 0.0772 v 0.0772 0.0772 l -1.256771,1.17957 -1.256771,1.17957 z m 4.376682,-4.16719 0.47889,-0.52917 h 0.132291 0.132292 l -0.478889,0.52917 -0.47889,0.52917 h -0.132291 -0.132292 z m 3.307292,-3.01031 v -0.0999 l 0.463021,-0.36312 0.463021,-0.36313 -0.363126,0.46302 -0.363126,0.46302 h -0.0999 -0.0999 z m 11.641667,-6.87917 v -0.0999 l 0.46302,-0.36313 0.463021,-0.36313 -0.363126,0.46303 -0.363126,0.46302 h -0.0999 -0.09989 z m 30.393336,-0.36312 -0.36313,-0.46303 0.46302,0.36313 0.46302,0.36313 v 0.0999 0.0999 h -0.0999 -0.0999 z"
         id="path899" />
      <path
         style="fill:#dadbdc;stroke-width:0.264583"
         d="m 117.03088,242.00962 2.97656,-0.0844 2.97656,0.0844 2.97657,0.0844 h -5.95313 -5.95312 z m -37.817275,-0.26531 6.169706,-0.0762 6.001129,0.0763 6.001125,0.0763 -12.170833,-1e-4 -12.170833,-10e-5 z m 46.998025,-8.92989 1.7e-4,-8.99583 0.0791,4.581 0.0791,4.581 -0.0793,4.41484 -0.0793,4.41483 z m -47.130241,4.96113 6.302073,-0.076 6.133343,0.0761 6.133344,0.0761 -12.435417,-1e-4 -12.435417,-1e-4 z m 33.624871,-15.7429 -0.50403,-0.59531 0.59531,0.50403 0.59532,0.50403 v 0.0913 0.0913 h -0.0913 -0.0913 z m 9.92699,-1.71979 -0.64143,-0.7276 0.7276,0.64143 0.7276,0.64144 v 0.0862 0.0862 h -0.0862 -0.0862 z m -14.02292,-2.64583 -0.64143,-0.72761 0.7276,0.64144 0.72761,0.64143 v 0.0862 0.0862 h -0.0862 -0.0862 z m -45.806473,-9.7882 2.195376,-0.0893 2.037958,0.0899 2.037958,0.09 -4.233334,-5.3e-4 -4.233333,-5.3e-4 2.195375,-0.0893 z m 65.616663,0 2.19538,-0.0893 2.03796,0.0899 2.03796,0.09 -4.23334,-5.3e-4 -4.23333,-5.3e-4 2.19537,-0.0893 z m -67.282871,-10.91545 0.478889,-0.52916 h 0.132292 0.132291 l -0.478889,0.52916 -0.478889,0.52917 h -0.132292 -0.132292 z m 68.248521,-4.49979 -5.04106,-5.02521 h 0.14888 0.14888 l 5.02186,5.02709 5.02186,5.02708 -0.12968,-0.002 -0.12968,-0.002 -5.04106,-5.02521 z m -63.750605,0.26646 1.033435,-1.05833 h 0.132292 0.132292 l -1.033435,1.05833 -1.033435,1.05833 H 64.734422 64.60213 Z m 3.704167,-3.43958 1.033435,-1.05834 h 0.132292 0.132291 l -1.033435,1.05834 -1.033435,1.05833 h -0.132291 -0.132292 z"
         id="path897" />
      <path
         style="fill:#ced9e8;stroke-width:0.264583"
         d="m 79.83255,202.25505 v -0.66146 l 0.133452,0.33073 0.133452,0.33073 -0.133452,0.33073 -0.133452,0.33073 z m -4.853886,-2.56199 0.347266,-0.13896 0.159852,0.15985 0.159853,0.15985 -0.507118,-0.0209 -0.507118,-0.0209 0.347265,-0.13896 z m 6.862631,0.005 0.330729,-0.13345 0.330729,0.13345 0.330729,0.13346 h -0.661458 -0.661459 z"
         id="path895" />
      <path
         style="fill:#e0dacf;stroke-width:0.264583"
         d="m 68.788098,203.0488 v -4.89479 l 0.08731,2.44739 0.08731,2.4474 -0.08731,2.4474 -0.08731,2.44739 z m 57.679162,0 v -4.89479 l 0.0873,2.44739 0.0873,2.4474 -0.0873,2.4474 -0.0873,2.44739 z m -42.621349,-6.01923 13.977011,-0.0709 13.804238,0.0709 13.80424,0.0709 -27.781251,-2e-5 -27.78125,-3e-5 z"
         id="path893" />
      <path
         style="fill:#d1d2d3;stroke-width:0.264583"
         d="m 73.131756,240.02432 0.08786,-1.78594 H 85.214732 97.20985 l 0.08786,1.78594 0.08786,1.78594 H 85.214732 73.043899 Z m -0.01581,-17.13186 -0.07205,-10.58343 8.929687,9e-5 8.929688,1e-4 v 10.58333 10.58333 h -8.85764 -8.85764 z m 40.652244,-5.29158 v -5.15937 l 0.0865,2.57969 0.0865,2.57968 -0.0865,2.57969 -0.0865,2.57969 z m -2.24744,3.24115 -0.64143,-0.72761 0.7276,0.64144 0.7276,0.64143 v 0.0862 0.0862 h -0.0862 -0.0862 z m -4.23334,-4.49792 -0.64143,-0.7276 0.72761,0.64143 0.7276,0.64144 v 0.0862 0.0862 h -0.0862 -0.0862 z M 60.740774,202.68017 v -5.13113 l 3.902604,-3.65935 3.902604,-3.65936 1.464653,-1.36062 1.464653,-1.36063 26.44889,-0.008 26.448892,-0.008 5.09322,5.05697 5.09323,5.05697 v 5.10215 5.10216 h -3.96875 -3.96875 v -4.72387 -4.72386 l -0.64882,-0.7001 -0.64883,-0.70009 H 97.650149 69.975923 l -0.648825,0.7001 -0.648824,0.70009 v 4.72386 4.72387 h -3.96875 -3.96875 z"
         id="path891" />
      <path
         style="fill:#ced0d1;stroke-width:0.264583"
         d="m 79.213605,238.04014 6.169706,-0.0762 6.001129,0.0763 6.001125,0.0763 -12.170833,-10e-5 -12.170833,-1e-4 z"
         id="path889" />
      <path
         style="fill:#cdced0;stroke-width:0.264583"
         d="m 73.000562,239.82588 v -1.98437 l 0.103785,0.99219 0.103787,0.99218 -0.103787,0.99219 -0.103785,0.99219 z m 24.339532,0.13229 0.0021,-1.85208 0.104137,0.99809 0.104137,0.99809 -0.106272,0.85399 -0.106273,0.854 0.0021,-1.85209 z m -6.316247,-16.93333 1.3e-4,-10.58333 0.07747,5.37543 0.07748,5.37544 -0.07761,5.2079 -0.0776,5.20789 z m -17.991796,-0.13229 v -10.45104 l 0.07766,5.22552 0.07766,5.22552 -0.07766,5.22552 -0.07766,5.22552 z m 37.165779,-3.37344 -0.64143,-0.7276 0.7276,0.64143 0.72761,0.64144 v 0.0862 0.0862 h -0.0862 -0.0862 z m 10.30503,-1.32291 -0.36313,-0.46303 0.46302,0.36313 0.46302,0.36313 v 0.0999 0.0999 h -0.0999 -0.0999 z m -14.41118,-3.04271 -0.50403,-0.59532 0.59531,0.50403 0.59531,0.50403 v 0.0913 0.0913 h -0.0913 -0.0913 z"
         id="path887" />
      <path
         style="fill:#b3c9eb;stroke-width:0.264583"
         d="m 76.35119,204.27182 v -0.0999 l 0.463021,-0.36313 0.463021,-0.36313 -0.363126,0.46303 -0.363126,0.46302 h -0.09989 -0.0999 z m 4.075903,-0.49542 -0.504028,-0.59531 0.595313,0.50403 0.595312,0.50403 v 0.0913 0.0913 h -0.09128 -0.09128 z m -7.728489,-1.65364 0.0098,-0.79375 0.121969,0.46805 0.12197,0.46806 -0.131773,0.32569 -0.131774,0.3257 0.0098,-0.79375 z m 4.772304,-0.13229 v -0.92605 l 0.121,0.46303 0.121,0.46302 -0.121,0.46302 -0.121,0.46302 z m 6.395769,-1.65365 -0.504028,-0.59531 0.595312,0.50403 0.595313,0.50403 v 0.0913 0.0913 h -0.09128 -0.09128 z"
         id="path885" />
      <path
         style="fill:#c6c6c6;stroke-width:0.264583"
         d="m 114.18567,238.23838 0.13135,-3.83646 0.0746,3.63803 0.0746,3.63802 h 5.67751 5.67751 l 0.0752,-8.7974 0.0752,-8.7974 -0.006,8.86355 -0.005,8.86354 -5.95313,0.13229 -5.95312,0.13229 0.13135,-3.83646 z m -11.00876,0.13229 7.9e-4,-3.43958 0.0928,1.79694 0.0928,1.79694 -0.0936,1.64265 -0.0937,1.64264 7.9e-4,-3.43959 z m 4.2647,-12.30009 -0.16165,-0.26155 0.41061,0.15757 0.41062,0.15757 v 0.10398 0.10398 h -0.24897 -0.24897 z m 13.98538,-2.78116 10e-4,-2.64583 0.0975,1.39793 0.0975,1.39793 -0.0987,1.24791 -0.0987,1.2479 0.001,-2.64584 z m -15.97163,1.7198 -0.39688,-0.25648 h 0.26459 0.26458 l 0.39687,0.25648 0.39688,0.25648 h -0.26458 -0.26459 z m 5.82083,0 0.39688,-0.25648 h 0.26458 0.26458 l -0.39687,0.25648 -0.39688,0.25648 h -0.26458 -0.26458 z m -7.50493,-0.97854 -0.18478,-0.18479 0.0276,-5.67099 0.0276,-5.67098 1.03913,1.01468 1.03912,1.01468 v 0.13049 0.1305 l -0.93661,-0.9078 -0.93662,-0.9078 0.0767,5.61865 0.0767,5.61866 -0.022,-2.6e-4 -0.022,-2.5e-4 -0.18479,-0.18479 z m 9.57516,-0.52276 0.15244,-0.74766 0.10411,0.49112 0.1041,0.49113 -0.25654,0.25654 -0.25655,0.25654 z m 10.35094,-1.87214 -0.91179,-0.99219 0.99218,0.9118 0.99219,0.9118 v 0.0804 0.0804 h -0.0804 -0.0804 z m -15.08125,-3.70417 -0.91179,-0.99219 0.99218,0.9118 0.99219,0.9118 v 0.0804 0.0804 h -0.0804 -0.0804 z m -27.408504,-33.27135 -0.0015,-2.38125 0.10089,1.11649 0.10089,1.1165 -0.09942,1.26475 -0.09942,1.26476 -0.0015,-2.38125 z m 32.808334,0 -0.002,-2.38125 0.10089,1.11649 0.10089,1.1165 -0.0994,1.26475 -0.0994,1.26476 -0.002,-2.38125 z"
         id="path883" />
      <path
         style="fill:#b0c2da;stroke-width:0.264583"
         d="m 69.052681,203.0488 v -4.89479 l 0.08731,2.44739 0.08731,2.4474 -0.08731,2.4474 -0.08731,2.44739 z m 57.149999,0 v -4.89479 l 0.0873,2.44739 0.0873,2.4474 -0.0873,2.4474 -0.0873,2.44739 z m -56.99524,-5.12698 v -0.0999 l 0.463021,-0.36313 0.463021,-0.36313 -0.363126,0.46303 -0.363126,0.46302 h -0.0999 -0.09989 z m 56.3225,-0.36312 -0.36312,-0.46303 0.46302,0.36313 0.46302,0.36313 v 0.0999 0.0999 h -0.0999 -0.0999 z"
         id="path881" />
      <path
         style="fill:#bbbbbb;stroke-width:0.264583"
         d="m 114.45119,237.95818 v -3.71978 l 0.26458,0.16352 0.26459,0.16353 v -0.3243 -0.32429 l 0.16073,0.16072 0.16072,0.16073 0.69917,-0.66083 0.69917,-0.66083 0.7276,-0.43889 0.72761,-0.43889 v -0.33372 -0.33373 l 0.65918,-0.43192 0.65919,-0.43192 -0.13967,-0.22599 -0.13967,-0.22599 0.53882,-0.53882 0.53881,-0.53881 -0.19843,-0.004 -0.19844,-0.004 0.32405,-0.20587 0.32404,-0.20587 0.11932,-0.64997 0.11931,-0.64998 0.0197,-0.47863 0.0197,-0.47864 0.2399,0.14827 0.23991,0.14827 -0.14929,-0.5709 -0.1493,-0.5709 0.30626,0.18928 0.30627,0.18927 v -2.5071 -2.50711 l -0.26414,-0.0882 -0.26413,-0.0882 -0.24554,-0.85633 -0.24554,-0.85633 0.2038,-0.12595 0.2038,-0.12596 2.48868,2.70208 2.4887,2.70206 -0.0697,8.7974 -0.0697,8.7974 h -5.68497 -5.68498 z m -6.41387,-11.68536 -0.0702,-0.21051 -0.66058,-0.12658 -0.66059,-0.12658 -0.31945,-0.43511 -0.31945,-0.43512 -0.72999,-0.0801 -0.72999,-0.0801 -0.29964,-0.40977 -0.29963,-0.40978 -0.14579,0.14578 -0.14578,0.14578 -0.19966,-0.32306 -0.19967,-0.32307 0.31581,0.19518 0.3158,0.19518 -0.0765,-5.58904 -0.0765,-5.58905 2.11666,2.19643 2.11667,2.19642 2.66883,2.77712 2.66884,2.77711 0.13722,0.71778 0.13721,0.71778 -0.19864,-0.12276 -0.19864,-0.12277 -0.15814,0.41213 -0.15815,0.41212 -0.26646,-0.16467 -0.26645,-0.16468 v 0.29581 0.29582 l -0.2407,-0.14877 -0.24071,-0.14876 -0.41923,0.16087 -0.41923,0.16088 0.13841,0.22395 0.1384,0.22395 -1.06597,0.31937 -1.06597,0.31937 v 0.16601 0.166 h -0.52601 -0.52602 z m -23.956225,-38.76239 2.835112,-0.0898 0.08918,-2.57083 0.08918,-2.57083 -0.01386,2.64583 -0.01387,2.64583 -2.910416,0.0148 -2.910417,0.0148 2.835113,-0.0898 z m 24.133545,-0.15804 -0.13453,-0.35058 0.0879,-2.49369 0.0879,-2.4937 0.0549,2.70303 0.0549,2.70303 2.84427,0.085 2.84428,0.085 -2.85258,0.0562 -2.85257,0.0562 z"
         id="path879" />
      <path
         style="fill:#83abe7;stroke-width:0.264583"
         d="m 83.845911,197.29415 13.977011,-0.0709 13.804238,0.0709 13.80424,0.0709 -27.781251,-2e-5 -27.78125,-2e-5 z"
         id="path877" />
      <path
         style="fill:#72a4f0;stroke-width:0.264583"
         d="m 77.694995,202.10071 0.02089,-0.50712 0.138964,0.34727 0.138964,0.34726 -0.159852,0.15986 -0.159853,0.15985 0.02089,-0.50712 z m -2.716331,-2.67223 0.347266,-0.13897 0.159852,0.15985 0.159853,0.15986 -0.507118,-0.0209 -0.507118,-0.0209 0.347265,-0.13897 z m 7.14375,0 0.347266,-0.13897 0.159852,0.15985 0.159853,0.15986 -0.507118,-0.0209 -0.507118,-0.0209 0.347265,-0.13897 z"
         id="path875" />
      <path
         style="fill:#a7a7a7;stroke-width:0.264583"
         d="m 105.91838,242.00979 2.71198,-0.0858 2.71198,0.0858 2.71198,0.0857 h -5.42396 -5.42396 z m 11.57552,-9.85682 0.47889,-0.52917 h 0.13229 0.13229 l -0.47889,0.52917 -0.47889,0.52916 h -0.13229 -0.13229 z m 3.61365,-7.14375 v -0.66146 l 0.13345,0.33073 0.13346,0.33073 -0.13346,0.33073 -0.13345,0.33072 z m -7.42922,-1.47726 0.0209,-0.50712 0.13897,0.34727 0.13896,0.34726 -0.15985,0.15986 -0.15985,0.15985 0.0209,-0.50712 z m -10.22689,-5.5342 2.6e-4,-5.82084 0.0845,2.99123 0.0845,2.99123 -0.0849,2.8296 -0.0849,2.82961 2.6e-4,-5.82083 z m 17.65611,3.30729 v -0.66146 l 0.13345,0.33073 0.13346,0.33073 -0.13346,0.33073 -0.13345,0.33073 z m -28.700443,-39.62095 5.075709,-0.0779 5.243044,0.0777 5.24304,0.0777 -10.318751,1.4e-4 -10.31875,1.3e-4 z m -10.235083,-0.16644 v -0.0999 l 0.46302,-0.36313 0.463021,-0.36312 -0.363126,0.46302 -0.363126,0.46302 h -0.0999 -0.09989 z m 30.393336,-0.36313 -0.36313,-0.46302 0.46302,0.36312 0.46302,0.36313 v 0.0999 0.0999 h -0.0999 -0.0999 z m -27.48292,-2.57969 1.704504,-1.71979 h 0.132292 0.132292 l -1.704504,1.71979 -1.704505,1.71979 h -0.132292 -0.132292 z m 24.86319,-0.0661 -1.71215,-1.78594 1.78594,1.71215 1.78594,1.71214 v 0.0738 0.0738 h -0.0738 -0.0738 z m -17.670915,-1.8517 5.2079,-0.0776 5.375435,0.0775 5.37543,0.0775 -10.583331,1.3e-4 -10.583334,1.3e-4 z"
         id="path873" />
      <path
         style="fill:#639bf3;stroke-width:0.264583"
         d="m 74.978664,204.72014 0.347266,-0.13896 0.159852,0.15985 0.159853,0.15985 -0.507118,-0.0209 -0.507118,-0.0209 z m -2.554447,-2.72967 v -0.66146 l 0.133452,0.33073 0.133452,0.33073 -0.133452,0.33073 -0.133452,0.33072 z m 12.414529,0.11024 0.02088,-0.50712 0.138965,0.34727 0.138964,0.34726 -0.15985,0.15986 -0.159854,0.15985 0.0209,-0.50712 z"
         id="path871" />
      <path
         style="fill:#5897f6;stroke-width:0.264583"
         d="m 69.325235,207.73664 -0.131101,-0.34165 0.07964,-4.4882 0.07964,-4.4882 0.0593,4.69636 0.0593,4.69635 h 28.172021 28.172015 l 0.082,-4.69635 0.082,-4.69636 -0.01,4.7625 -0.01,4.7625 -28.252113,0.0674 -28.252114,0.0673 -0.131101,-0.34164 z m 10.221843,-5.90051 0.02089,-0.50712 0.138964,0.34726 0.138965,0.34727 -0.159853,0.15985 -0.159853,0.15985 0.02089,-0.50711 z"
         id="path869" />
      <path
         style="fill:#989898;stroke-width:0.264583"
         d="m 96.270614,223.28942 0.0036,-1.32291 0.110575,0.73124 0.110574,0.73124 -0.114186,0.59168 -0.114186,0.59167 z m 24.874446,-0.13229 v -1.45521 l 0.11022,0.72761 0.11022,0.7276 -0.11022,0.72761 -0.11022,0.7276 z m -20.98137,-8.86354 0.62141,-0.66146 h 0.13229 0.13229 l -0.62141,0.66146 -0.621405,0.66146 h -0.132291 -0.132292 z"
         id="path867" />
      <path
         style="fill:#4088f6;stroke-width:0.264583"
         d="m 69.472024,202.79983 v -4.74688 l 0.243318,-0.15038 0.243319,-0.15038 h 27.691488 27.691491 l 0.24331,0.15038 0.24332,0.15038 v 4.74688 4.74689 H 97.650149 69.472024 Z m 6.614583,2.12263 v -0.243 l 0.942229,-0.58233 0.94223,-0.58233 -0.136924,-0.35682 -0.136924,-0.35682 0.253028,-0.15638 0.253028,-0.15638 v -0.51355 -0.51355 h -0.280199 -0.280198 l 0.174914,-0.28302 0.174914,-0.28301 -0.868411,-0.77532 -0.868411,-0.77532 h -1.10373 -1.10373 l -0.841914,0.80458 -0.841914,0.80458 0.156829,0.25376 0.156829,0.25375 h -0.280198 -0.280198 v 0.66146 0.66146 h 0.256279 0.25628 l -0.166144,0.46302 -0.166144,0.46302 0.196497,-0.17639 0.196496,-0.17639 0.573264,0.57326 0.573264,0.57327 -0.06297,0.18891 -0.06297,0.18892 0.437105,-0.16773 0.437104,-0.16774 -0.19131,0.30955 -0.19131,0.30955 h 0.941656 0.941657 z m 6.879167,-0.0372 v -0.2802 l 0.236859,0.14639 0.236859,0.14638 0.152654,-0.39781 0.152653,-0.3978 0.326065,0.0686 0.326065,0.0686 0.02405,-0.39687 0.02405,-0.39688 0.351163,0.077 0.35116,0.077 -0.156445,-0.4077 -0.156448,-0.40769 h 0.256278 0.25628 v -0.66146 -0.66146 l -0.396875,-0.46302 -0.396875,-0.46302 -0.557677,-0.62383 -0.557677,-0.62382 -1.461238,0.13865 -1.461238,0.13864 -0.402457,0.40246 -0.402456,0.40246 -0.07417,1.47178 -0.07416,1.47178 h 0.262195 0.262195 l -0.162826,0.26346 -0.162826,0.26346 0.668081,0.3044 0.668081,0.3044 -0.137737,0.22286 -0.137737,0.22286 0.410617,-0.15757 0.410617,-0.15757 v 0.2929 0.29289 h 0.661458 0.661459 z"
         id="path865" />
      <path
         style="fill:#3582f8;stroke-width:0.264583"
         d="m 83.408521,207.61292 14.068789,-0.0708 14.24163,0.0708 14.24163,0.0708 -28.310421,2e-5 -28.310417,2e-5 z m -8.707892,-2.63458 0.598398,-0.11507 0.459936,0.12041 0.459936,0.1204 -1.058334,-0.005 -1.058333,-0.005 0.598397,-0.11506 z m 7.277993,0.004 0.468056,-0.12197 0.325694,0.13177 0.325693,0.13178 -0.79375,-0.01 -0.79375,-0.01 0.468057,-0.12197 z m -4.419796,-1.4817 0.180653,-0.47444 0.148113,0.14812 0.148112,0.14811 -0.328765,0.32632 -0.328766,0.32632 z m -5.389389,-1.37766 0.0098,-0.79375 0.12197,0.46805 0.12197,0.46806 -0.131774,0.32569 -0.131774,0.3257 0.0098,-0.79375 z m 12.974387,-0.13229 v -0.92605 l 0.121002,0.46303 0.120999,0.46302 -0.120999,0.46302 -0.121002,0.46302 z m -7.163357,0 v -0.66146 l 0.133452,0.33073 0.133452,0.33073 -0.133452,0.33073 -0.133452,0.33072 z m -0.421641,-1.24536 -0.180653,-0.47444 0.328766,0.32632 0.328765,0.32632 -0.148112,0.14812 -0.148113,0.14811 z m 2.231948,-0.30975 v -0.23218 l 0.403269,-0.33469 0.403269,-0.33468 0.0818,0.10385 0.0818,0.10385 -0.48507,0.46302 -0.485069,0.46302 z"
         id="path863" />
      <path
         style="fill:#2e7efa;stroke-width:0.264583"
         d="m 83.978186,197.55874 13.844704,-0.0709 13.67196,0.071 13.67197,0.0709 -27.516671,-2e-5 -27.516667,-2e-5 z"
         id="path861" />
      <path
         style="fill:#878787;stroke-width:0.264583"
         d="m 114.02642,238.10609 7.9e-4,-3.70417 0.0915,1.92981 0.0915,1.9298 -0.0923,1.77437 -0.0923,1.77436 7.9e-4,-3.70417 z m -31.391376,-50.86277 1.389063,-0.0972 1.389062,0.0972 1.389063,0.0972 h -2.778125 -2.778125 z m 27.252086,0 1.38906,-0.0972 1.38906,0.0972 1.38907,0.0972 h -2.77813 -2.77812 z m -28.416407,-2.45077 v -2.24896 l 0.10128,1.12448 0.10128,1.12448 -0.10128,1.12448 -0.10128,1.12448 z m 5.241561,-0.31511 -0.04234,-2.56408 0.198438,-0.12351 0.198437,-0.12352 -0.07242,1.89384 -0.07242,1.89384 -0.08367,0.79375 -0.08368,0.79375 z m 21.651766,-0.13585 -0.13057,-2.69991 0.20893,0.21009 0.20893,0.21009 -0.0784,2.48983 -0.0784,2.48982 z m 5.38584,0.45096 v -2.24896 l 0.10128,1.12448 0.10128,1.12448 -0.10128,1.12448 -0.10128,1.12448 z"
         id="path859" />
      <path
         style="fill:#797979;stroke-width:0.264583"
         d="m 99.741677,231.82224 -0.504028,-0.59532 0.595312,0.50403 0.595309,0.50403 v 0.0913 0.0913 h -0.0913 -0.0913 z m 17.752223,0.0661 0.47889,-0.52916 h 0.13229 0.13229 l -0.47889,0.52916 -0.47889,0.52917 h -0.13229 -0.13229 z m -3.45988,-14.15521 2.6e-4,-5.55625 0.0852,2.85866 0.0852,2.85865 -0.0856,2.6976 -0.0856,2.69759 2.6e-4,-5.55625 z m 3.30756,-3.24114 -0.64143,-0.72761 0.7276,0.64144 0.72761,0.64143 v 0.0862 0.0862 h -0.0862 -0.0862 z m -35.786414,-29.7463 0.0446,-2.42824 2.734416,-2.71463 2.734416,-2.71463 -0.211723,3.62143 -0.211724,3.62143 0.07854,1.52184 0.07854,1.52183 -2.645833,-3.9e-4 -2.645834,-4e-4 0.0446,-2.42824 z m 27.021444,0.9072 0.0785,-1.52184 -0.21173,-3.62143 -0.21172,-3.62143 2.73441,2.71463 2.73442,2.71463 0.0446,2.42824 0.0446,2.42824 -2.64583,3.9e-4 -2.64583,4e-4 0.0785,-1.52184 z"
         id="path857" />
      <path
         style="fill:#666666;stroke-width:0.264583"
         d="m 106.31525,241.7453 2.57969,-0.0865 2.57969,0.0865 2.57969,0.0865 h -5.15938 -5.15937 z m 7.56034,-17.97279 0.15244,-0.74767 0.1041,0.49113 0.1041,0.49112 -0.25654,0.25654 -0.25654,0.25654 z m -12.91815,-9.97569 v -0.0999 l 0.46302,-0.36313 0.46302,-0.36313 -0.36312,0.46303 -0.36313,0.46302 h -0.0999 -0.0999 z m -13.967071,-34.49437 0.07645,-2.31511 h 10.583334 10.583327 l 0.0764,2.31511 0.0765,2.3151 H 97.650149 86.913921 Z m 21.110821,-0.0661 v -2.11667 H 97.650149 87.199107 v 2.11667 2.11667 h 10.451042 10.451041 z"
         id="path855" />
      <path
         style="fill:#585858;stroke-width:0.264583"
         d="m 103.45463,241.59847 -0.13203,-0.34407 0.0754,-3.55853 0.0754,-3.55853 0.13109,3.90302 0.1311,3.90301 -0.0744,-5.3e-4 -0.0744,-5.3e-4 -0.13204,-0.34407 z m 10.3072,-3.49238 8e-4,-3.70417 0.0915,1.92981 0.0915,1.9298 -0.0923,1.77437 -0.0923,1.77436 7.9e-4,-3.70417 z m 6.79567,-12.19288 0.0209,-0.50712 0.13897,0.34727 0.13896,0.34726 -0.15985,0.15986 -0.15985,0.15985 0.0209,-0.50712 z m -17.48385,-7.70426 -0.13183,-5.87423 0.20383,0.20432 0.20384,0.20431 -0.072,5.66991 -0.072,5.66991 z m 17.48385,2.14801 0.0209,-0.50712 0.13897,0.34727 0.13896,0.34726 -0.15985,0.15986 -0.15985,0.15985 0.0209,-0.50712 z m -23.56881,-0.88838 v -0.24897 l 0.261554,-0.16165 0.261551,-0.16164 -0.157567,0.41061 -0.15757,0.41062 H 97.092674 96.98869 Z m 2.38125,-4.08426 v -0.0999 l 0.463021,-0.36313 0.463019,-0.36313 -0.363123,0.46303 -0.363127,0.46302 h -0.09989 -0.0999 z M 87.199107,179.2363 v -2.11667 h 10.451042 10.451041 v 2.11667 2.11667 H 97.650149 87.199107 Z"
         id="path853" />
      <path
         style="fill:#4e4e4e;stroke-width:0.264583"
         d="m 103.54439,237.90765 -0.0734,-3.77031 -0.97277,-0.47554 -0.97278,-0.47553 -1.0116,-1.00371 -1.011598,-1.00371 -0.588005,-0.66712 -0.588002,-0.66712 -0.315867,-0.76405 -0.315868,-0.76405 -0.04434,-0.13229 -0.04434,-0.1323 -0.360413,-0.79375 -0.360412,-0.79375 -0.07247,-3.0051 -0.07247,-3.0051 0.443968,-0.83135 0.443969,-0.83136 0.02114,-0.13229 0.02114,-0.1323 0.483127,-0.99218 0.483126,-0.99219 h 0.250053 0.250049 l -0.150426,-0.2434 -0.150429,-0.24339 0.66398,-0.52229 0.663978,-0.52229 v -0.18635 -0.18636 l 0.99219,-0.8939 0.99218,-0.89391 0.46302,-0.006 0.46301,-0.006 v 5.54595 5.54594 l 0.53363,0.49715 0.53363,0.49716 0.59085,0.27546 0.59085,0.27546 1.6557,0.8418 1.6557,0.84181 2.70992,-1.41059 2.70993,-1.41059 0.0713,-5.75813 0.0713,-5.75813 0.69077,0.0925 0.69077,0.0925 0.36238,0.49559 0.36238,0.49559 v -0.23656 -0.23656 l 1.05834,1.03343 1.05833,1.03344 v 0.34318 0.34318 h 0.30868 0.30868 l -0.16046,0.16045 -0.16045,0.16046 0.52038,0.55856 0.52039,0.55857 0.54118,1.72837 0.54119,1.72838 0.14104,1.32291 0.14104,1.32292 -0.43594,1.5875 -0.43595,1.5875 -0.13523,0.64449 -0.13524,0.6445 -0.43982,0.74456 -0.43983,0.74458 h -0.20754 -0.20754 v 0.36766 0.36766 l -0.85989,0.93097 -0.8599,0.93097 -1.65364,1.10586 -1.65365,1.10586 v 3.54863 3.54864 h -5.01982 -5.01982 z"
         id="path851" />
      <path
         style="fill:#3c3c3c;stroke-width:0.264583"
         d="m 96.535197,223.28942 0.0036,-1.32291 0.110575,0.73124 0.110575,0.73124 -0.114186,0.59168 -0.114187,0.59167 z m 18.048283,-10.45104 -0.52916,-0.22739 0.4474,-0.0186 0.44741,-0.0186 0.16352,0.26459 0.16352,0.26458 -0.0818,-0.0186 -0.0818,-0.0186 z"
         id="path849" />
    </g>
  </g>
</svg>
